<svg width="400" height="94" viewBox="0 0 400 94" fill="none" xmlns="http://www.w3.org/2000/svg">
<g filter="url(#filter0_f_37_18)">
<rect x="21" y="6" width="83" height="82" rx="18" fill="#090909"/>
</g>
<path d="M72.5 28.4545L61.25 70.25H53.2727L64.5227 28.4545H72.5Z" fill="white"/>
<path d="M35.7025 50.2818C34.6017 51.1619 32.7261 51.2931 31.5134 50.5751V50.5751C29.573 49.4262 29.4279 47.3534 31.1893 45.9454L47.2945 33.0713C48.7257 31.9273 51.1639 31.7566 52.7404 32.6901V32.6901C54.317 33.6236 54.4349 35.3077 53.0037 36.4517L35.7025 50.2818Z" fill="white"/>
<path d="M36.0475 46.2279C34.9466 45.3479 33.0711 45.2166 31.8583 45.9347V45.9347C29.918 47.0836 29.7729 49.1563 31.5343 50.5643L47.6395 63.4385C49.0706 64.5825 51.5088 64.7531 53.0854 63.8197V63.8197C54.6619 62.8862 54.7798 61.2021 53.3487 60.0581L36.0475 46.2279Z" fill="white"/>
<path d="M91.2375 50.2818C92.3384 51.1619 94.2139 51.2931 95.4267 50.5751V50.5751C97.3671 49.4262 97.5122 47.3534 95.7508 45.9454L79.6455 33.0713C78.2144 31.9273 75.7762 31.7566 74.1996 32.6901V32.6901C72.6231 33.6236 72.5052 35.3077 73.9363 36.4517L91.2375 50.2818Z" fill="white"/>
<path d="M90.8924 46.2279C91.9933 45.3479 93.8689 45.2166 95.0816 45.9347V45.9347C97.022 47.0836 97.1671 49.1563 95.4057 50.5643L79.3004 63.4385C77.8693 64.5825 75.4311 64.7531 73.8546 63.8197V63.8197C72.278 62.8862 72.1601 61.2021 73.5912 60.0581L90.8924 46.2279Z" fill="white"/>
<path d="M166.835 41.3125H159.369C159.233 40.3466 158.955 39.4886 158.534 38.7386C158.114 37.9773 157.574 37.3295 156.915 36.7955C156.256 36.2614 155.494 35.8523 154.631 35.5682C153.778 35.2841 152.852 35.142 151.852 35.142C150.045 35.142 148.472 35.5909 147.131 36.4886C145.79 37.375 144.75 38.6705 144.011 40.375C143.273 42.0682 142.903 44.125 142.903 46.5455C142.903 49.0341 143.273 51.125 144.011 52.8182C144.761 54.5114 145.807 55.7898 147.148 56.6534C148.489 57.517 150.04 57.9489 151.801 57.9489C152.79 57.9489 153.705 57.8182 154.545 57.5568C155.398 57.2955 156.153 56.9148 156.812 56.4148C157.472 55.9034 158.017 55.2841 158.449 54.5568C158.892 53.8295 159.199 53 159.369 52.0682L166.835 52.1023C166.642 53.7045 166.159 55.25 165.386 56.7386C164.625 58.2159 163.597 59.5398 162.301 60.7102C161.017 61.8693 159.483 62.7898 157.699 63.4716C155.926 64.142 153.92 64.4773 151.682 64.4773C148.568 64.4773 145.784 63.7727 143.33 62.3636C140.886 60.9545 138.955 58.9148 137.534 56.2443C136.125 53.5739 135.42 50.3409 135.42 46.5455C135.42 42.7386 136.136 39.5 137.568 36.8295C139 34.1591 140.943 32.125 143.398 30.7273C145.852 29.3182 148.614 28.6136 151.682 28.6136C153.705 28.6136 155.58 28.8977 157.307 29.4659C159.045 30.0341 160.585 30.8636 161.926 31.9545C163.267 33.0341 164.358 34.358 165.199 35.9261C166.051 37.4943 166.597 39.2898 166.835 41.3125ZM183.821 64.5114C181.173 64.5114 178.884 63.9489 176.952 62.8239C175.031 61.6875 173.548 60.108 172.503 58.0852C171.457 56.0511 170.935 53.6932 170.935 51.0114C170.935 48.3068 171.457 45.9432 172.503 43.9205C173.548 41.8864 175.031 40.3068 176.952 39.1818C178.884 38.0455 181.173 37.4773 183.821 37.4773C186.469 37.4773 188.753 38.0455 190.673 39.1818C192.605 40.3068 194.094 41.8864 195.139 43.9205C196.185 45.9432 196.707 48.3068 196.707 51.0114C196.707 53.6932 196.185 56.0511 195.139 58.0852C194.094 60.108 192.605 61.6875 190.673 62.8239C188.753 63.9489 186.469 64.5114 183.821 64.5114ZM183.855 58.8864C185.06 58.8864 186.065 58.5455 186.872 57.8636C187.679 57.1705 188.287 56.2273 188.696 55.0341C189.116 53.8409 189.327 52.483 189.327 50.9602C189.327 49.4375 189.116 48.0795 188.696 46.8864C188.287 45.6932 187.679 44.75 186.872 44.0568C186.065 43.3636 185.06 43.017 183.855 43.017C182.639 43.017 181.616 43.3636 180.787 44.0568C179.969 44.75 179.349 45.6932 178.929 46.8864C178.52 48.0795 178.315 49.4375 178.315 50.9602C178.315 52.483 178.52 53.8409 178.929 55.0341C179.349 56.2273 179.969 57.1705 180.787 57.8636C181.616 58.5455 182.639 58.8864 183.855 58.8864ZM211.077 64.4261C209.088 64.4261 207.287 63.9148 205.673 62.892C204.071 61.858 202.798 60.3409 201.855 58.3409C200.923 56.3295 200.457 53.8636 200.457 50.9432C200.457 47.9432 200.94 45.4489 201.906 43.4602C202.872 41.4602 204.156 39.9659 205.759 38.9773C207.372 37.9773 209.139 37.4773 211.06 37.4773C212.526 37.4773 213.747 37.7273 214.724 38.2273C215.713 38.7159 216.509 39.3295 217.111 40.0682C217.724 40.7955 218.19 41.5114 218.509 42.2159H218.73V29.0909H225.974V64H218.815V59.8068H218.509C218.168 60.5341 217.685 61.2557 217.06 61.9716C216.446 62.6761 215.645 63.2614 214.656 63.7273C213.679 64.1932 212.486 64.4261 211.077 64.4261ZM213.378 58.6477C214.548 58.6477 215.537 58.3295 216.344 57.6932C217.162 57.0455 217.787 56.142 218.219 54.983C218.662 53.8239 218.884 52.4659 218.884 50.9091C218.884 49.3523 218.668 48 218.236 46.8523C217.804 45.7045 217.179 44.8182 216.361 44.1932C215.543 43.5682 214.548 43.2557 213.378 43.2557C212.185 43.2557 211.179 43.5795 210.361 44.2273C209.543 44.875 208.923 45.7727 208.503 46.9205C208.082 48.0682 207.872 49.3977 207.872 50.9091C207.872 52.4318 208.082 53.7784 208.503 54.9489C208.935 56.108 209.554 57.017 210.361 57.6761C211.179 58.3239 212.185 58.6477 213.378 58.6477ZM243.876 64.5114C241.183 64.5114 238.865 63.9659 236.922 62.875C234.99 61.7727 233.501 60.2159 232.456 58.2045C231.411 56.1818 230.888 53.7898 230.888 51.0284C230.888 48.3352 231.411 45.9716 232.456 43.9375C233.501 41.9034 234.973 40.3182 236.871 39.1818C238.78 38.0455 241.018 37.4773 243.587 37.4773C245.314 37.4773 246.922 37.7557 248.411 38.3125C249.911 38.858 251.217 39.6818 252.331 40.7841C253.456 41.8864 254.331 43.2727 254.956 44.9432C255.581 46.6023 255.893 48.5455 255.893 50.7727V52.767H233.786V48.267H249.058C249.058 47.2216 248.831 46.2955 248.376 45.4886C247.922 44.6818 247.291 44.0511 246.484 43.5966C245.689 43.1307 244.763 42.8977 243.706 42.8977C242.604 42.8977 241.626 43.1534 240.774 43.6648C239.933 44.1648 239.274 44.8409 238.797 45.6932C238.32 46.5341 238.075 47.4716 238.064 48.5057V52.7841C238.064 54.0795 238.303 55.1989 238.78 56.142C239.268 57.0852 239.956 57.8125 240.842 58.3239C241.729 58.8352 242.78 59.0909 243.996 59.0909C244.803 59.0909 245.541 58.9773 246.212 58.75C246.882 58.5227 247.456 58.1818 247.933 57.7273C248.411 57.2727 248.774 56.7159 249.024 56.0568L255.74 56.5C255.399 58.1136 254.7 59.5227 253.643 60.7273C252.598 61.9205 251.246 62.8523 249.587 63.5227C247.939 64.1818 246.036 64.5114 243.876 64.5114ZM266.717 29.0909V32.7727C266.717 33.8182 266.513 34.8864 266.104 35.9773C265.706 37.0568 265.172 38.0795 264.501 39.0455C263.831 40 263.098 40.8125 262.303 41.483L259.098 39.5909C259.666 38.6932 260.166 37.6989 260.598 36.608C261.041 35.517 261.263 34.25 261.263 32.8068V29.0909H266.717ZM286.371 37.8182V43.2727H270.604V37.8182H286.371ZM274.183 31.5455H281.445V55.9545C281.445 56.625 281.547 57.1477 281.751 57.5227C281.956 57.8864 282.24 58.142 282.604 58.2898C282.979 58.4375 283.411 58.5114 283.899 58.5114C284.24 58.5114 284.581 58.483 284.922 58.4261C285.263 58.358 285.524 58.3068 285.706 58.2727L286.848 63.6761C286.484 63.7898 285.973 63.9205 285.314 64.0682C284.655 64.2273 283.854 64.3239 282.911 64.358C281.161 64.4261 279.626 64.1932 278.308 63.6591C277.001 63.125 275.984 62.2955 275.257 61.1705C274.53 60.0455 274.172 58.625 274.183 56.9091V31.5455ZM302.347 64V29.0909H309.727V57.9148H324.693V64H302.347ZM336.911 64.4943C335.24 64.4943 333.751 64.2045 332.445 63.625C331.138 63.0341 330.104 62.1648 329.342 61.017C328.592 59.858 328.217 58.4148 328.217 56.6875C328.217 55.233 328.484 54.0114 329.018 53.0227C329.553 52.0341 330.28 51.2386 331.2 50.6364C332.121 50.0341 333.166 49.5795 334.337 49.2727C335.518 48.9659 336.757 48.75 338.053 48.625C339.575 48.4659 340.803 48.3182 341.734 48.1818C342.666 48.0341 343.342 47.8182 343.763 47.5341C344.183 47.25 344.393 46.8295 344.393 46.2727V46.1705C344.393 45.0909 344.053 44.2557 343.371 43.6648C342.7 43.0739 341.746 42.7784 340.507 42.7784C339.2 42.7784 338.161 43.0682 337.388 43.6477C336.615 44.2159 336.104 44.9318 335.854 45.7955L329.138 45.25C329.479 43.6591 330.149 42.2841 331.149 41.125C332.149 39.9545 333.439 39.0568 335.018 38.4318C336.609 37.7955 338.45 37.4773 340.541 37.4773C341.996 37.4773 343.388 37.6477 344.717 37.9886C346.058 38.3295 347.246 38.858 348.28 39.5739C349.325 40.2898 350.149 41.2102 350.751 42.3352C351.354 43.4489 351.655 44.7841 351.655 46.3409V64H344.768V60.3693H344.564C344.143 61.1875 343.581 61.9091 342.876 62.5341C342.172 63.1477 341.325 63.6307 340.337 63.983C339.348 64.3239 338.206 64.4943 336.911 64.4943ZM338.99 59.483C340.058 59.483 341.001 59.2727 341.82 58.8523C342.638 58.4205 343.28 57.8409 343.746 57.1136C344.212 56.3864 344.445 55.5625 344.445 54.642V51.8636C344.217 52.0114 343.905 52.1477 343.507 52.2727C343.121 52.3864 342.683 52.4943 342.195 52.5966C341.706 52.6875 341.217 52.7727 340.729 52.8523C340.24 52.9205 339.797 52.983 339.399 53.0398C338.547 53.1648 337.803 53.3636 337.166 53.6364C336.53 53.9091 336.036 54.2784 335.683 54.7443C335.331 55.1989 335.155 55.767 335.155 56.4489C335.155 57.4375 335.513 58.1932 336.229 58.7159C336.956 59.2273 337.876 59.483 338.99 59.483ZM357.425 64V29.0909H364.686V42.2159H364.908C365.226 41.5114 365.686 40.7955 366.288 40.0682C366.902 39.3295 367.697 38.7159 368.675 38.2273C369.663 37.7273 370.891 37.4773 372.357 37.4773C374.266 37.4773 376.027 37.9773 377.641 38.9773C379.254 39.9659 380.544 41.4602 381.51 43.4602C382.476 45.4489 382.959 47.9432 382.959 50.9432C382.959 53.8636 382.487 56.3295 381.544 58.3409C380.612 60.3409 379.339 61.858 377.726 62.892C376.124 63.9148 374.328 64.4261 372.339 64.4261C370.93 64.4261 369.732 64.1932 368.743 63.7273C367.766 63.2614 366.964 62.6761 366.339 61.9716C365.714 61.2557 365.237 60.5341 364.908 59.8068H364.584V64H357.425ZM364.533 50.9091C364.533 52.4659 364.749 53.8239 365.18 54.983C365.612 56.142 366.237 57.0455 367.055 57.6932C367.874 58.3295 368.868 58.6477 370.038 58.6477C371.22 58.6477 372.22 58.3239 373.038 57.6761C373.857 57.017 374.476 56.108 374.896 54.9489C375.328 53.7784 375.544 52.4318 375.544 50.9091C375.544 49.3977 375.334 48.0682 374.913 46.9205C374.493 45.7727 373.874 44.875 373.055 44.2273C372.237 43.5795 371.232 43.2557 370.038 43.2557C368.857 43.2557 367.857 43.5682 367.038 44.1932C366.232 44.8182 365.612 45.7045 365.18 46.8523C364.749 48 364.533 49.3523 364.533 50.9091Z" fill="white"/>
<defs>
<filter id="filter0_f_37_18" x="20.1" y="5.1" width="84.8" height="83.8" filterUnits="userSpaceOnUse" color-interpolation-filters="sRGB">
<feFlood flood-opacity="0" result="BackgroundImageFix"/>
<feBlend mode="normal" in="SourceGraphic" in2="BackgroundImageFix" result="shape"/>
<feGaussianBlur stdDeviation="0.45" result="effect1_foregroundBlur_37_18"/>
</filter>
</defs>
</svg>
